<svg xmlns="http://www.w3.org/2000/svg" xmlns:xlink="http://www.w3.org/1999/xlink" width="512" zoomAndPan="magnify" viewBox="0 0 384 383.999986" height="512" preserveAspectRatio="xMidYMid meet" version="1.0"><defs><clipPath id="15a16e8c3e"><path d="M 28.320312 0 L 355.320312 0 L 355.320312 384 L 28.320312 384 Z M 28.320312 0 " clip-rule="nonzero"/></clipPath></defs><rect x="-38.4" width="460.8" fill="#ffffff" y="-38.399999" height="460.799983" fill-opacity="1"/><rect x="-38.4" width="460.8" fill="#ffffff" y="-38.399999" height="460.799983" fill-opacity="1"/><path fill="#9cdfea" d="M 125.898438 302.554688 C 125.898438 311.933594 122.167969 320.457031 116.105469 326.714844 L 320.714844 326.714844 C 334.042969 326.714844 344.882812 315.875 344.882812 302.554688 L 344.882812 283.226562 L 125.898438 283.226562 L 125.898438 302.554688 " fill-opacity="1" fill-rule="nonzero"/><path fill="#528efa" d="M 129.3125 184.574219 C 132.242188 184.574219 134.617188 186.949219 134.617188 189.878906 C 134.617188 192.808594 132.242188 195.183594 129.3125 195.183594 L 95.371094 195.183594 C 92.441406 195.183594 90.0625 192.808594 90.0625 189.878906 C 90.0625 186.949219 92.441406 184.574219 95.371094 184.574219 Z M 127.914062 96.058594 C 131.011719 93.753906 134.988281 93.285156 138.535156 94.808594 C 146.1875 98.105469 156.949219 103.070312 166.074219 108.515625 C 168.394531 108.035156 170.714844 107.777344 173.03125 107.625 C 173.226562 107.609375 173.421875 107.609375 173.617188 107.601562 C 175.050781 107.519531 176.476562 107.484375 177.898438 107.53125 C 177.914062 107.53125 177.929688 107.527344 177.941406 107.527344 C 177.988281 107.53125 178.03125 107.535156 178.074219 107.539062 C 181.175781 107.648438 184.261719 108 187.3125 108.683594 C 196.515625 103.15625 207.394531 98.136719 215.136719 94.808594 C 218.683594 93.285156 222.65625 93.75 225.761719 96.054688 C 228.863281 98.367188 230.457031 102.035156 230.011719 105.882812 C 228.515625 118.851562 226.125 136.089844 223.085938 146.058594 C 223.351562 147.949219 223.476562 149.695312 223.476562 151.359375 C 223.476562 175.566406 202.292969 195.261719 176.261719 195.261719 C 150.222656 195.261719 129.039062 175.566406 129.039062 151.359375 C 129.039062 148.722656 129.304688 146.058594 129.828125 143.414062 C 127.125 133.15625 124.988281 117.476562 123.65625 105.898438 C 123.214844 102.046875 124.804688 98.367188 127.914062 96.058594 Z M 252.363281 184.574219 C 255.292969 184.574219 257.667969 186.949219 257.667969 189.878906 C 257.667969 192.808594 255.292969 195.183594 252.363281 195.183594 L 222.660156 195.183594 C 219.734375 195.183594 217.355469 192.808594 217.355469 189.878906 C 217.355469 186.949219 219.734375 184.574219 222.660156 184.574219 Z M 252.363281 224.882812 L 129.3125 224.882812 C 126.382812 224.882812 124.011719 222.511719 124.011719 219.578125 C 124.011719 216.648438 126.382812 214.277344 129.3125 214.277344 L 252.363281 214.277344 C 255.292969 214.277344 257.667969 216.648438 257.667969 219.578125 C 257.667969 222.511719 255.292969 224.882812 252.363281 224.882812 Z M 252.363281 254.585938 L 231.144531 254.585938 C 228.214844 254.585938 225.84375 252.210938 225.84375 249.285156 C 225.84375 246.351562 228.214844 243.976562 231.144531 243.976562 L 252.363281 243.976562 C 255.292969 243.976562 257.667969 246.351562 257.667969 249.285156 C 257.667969 252.210938 255.292969 254.585938 252.363281 254.585938 Z M 90.0625 219.578125 C 90.0625 216.648438 92.441406 214.277344 95.371094 214.277344 L 103.851562 214.277344 C 106.78125 214.277344 109.160156 216.648438 109.160156 219.578125 C 109.160156 222.511719 106.78125 224.882812 103.851562 224.882812 L 95.371094 224.882812 C 92.441406 224.882812 90.0625 222.511719 90.0625 219.578125 Z M 201.445312 254.585938 L 95.371094 254.585938 C 92.441406 254.585938 90.0625 252.210938 90.0625 249.285156 C 90.0625 246.351562 92.441406 243.976562 95.371094 243.976562 L 201.445312 243.976562 C 204.375 243.976562 206.75 246.351562 206.75 249.285156 C 206.75 252.210938 204.375 254.585938 201.445312 254.585938 Z M 66.496094 57.285156 L 66.496094 302.554688 C 66.496094 315.875 77.335938 326.714844 90.660156 326.714844 L 91.125 326.714844 C 104.449219 326.714844 115.289062 315.875 115.289062 302.554688 L 115.289062 277.921875 C 115.289062 274.992188 117.667969 272.621094 120.597656 272.621094 L 285.480469 272.621094 L 285.480469 57.285156 L 247.058594 57.285156 C 247.058594 67.808594 238.492188 76.375 227.964844 76.375 L 124.011719 76.375 C 113.480469 76.375 104.917969 67.808594 104.917969 57.285156 L 66.496094 57.285156 " fill-opacity="1" fill-rule="nonzero"/><path fill="#16659d" d="M 91.125 337.328125 L 90.660156 337.328125 C 71.488281 337.328125 55.886719 321.722656 55.886719 302.554688 L 55.886719 51.976562 C 55.886719 49.050781 58.261719 46.671875 61.191406 46.671875 L 104.917969 46.671875 L 104.917969 31.824219 L 53.292969 31.824219 C 45.492188 31.824219 39.144531 38.167969 39.144531 45.964844 L 39.144531 359.25 C 39.144531 367.050781 45.492188 373.394531 53.292969 373.394531 L 298.683594 373.394531 C 306.484375 373.394531 312.828125 367.050781 312.828125 359.25 L 312.828125 337.328125 L 91.125 337.328125 " fill-opacity="1" fill-rule="nonzero"/><path fill="#16659d" d="M 150.03125 135.085938 C 150.964844 132.308594 153.964844 130.796875 156.742188 131.738281 L 165.746094 134.734375 C 168.527344 135.660156 170.03125 138.664062 169.101562 141.441406 C 168.363281 143.664062 166.292969 145.070312 164.074219 145.070312 C 163.515625 145.070312 162.949219 144.980469 162.394531 144.796875 L 153.390625 141.796875 C 150.613281 140.875 149.105469 137.867188 150.03125 135.085938 Z M 182.085938 150.972656 C 184.234375 150.972656 186.164062 152.265625 186.984375 154.246094 C 187.808594 156.226562 187.351562 158.511719 185.835938 160.027344 L 181.503906 164.363281 C 181.792969 166.125 183.253906 167.488281 185.089844 167.488281 C 187.128906 167.488281 188.792969 165.828125 188.792969 163.785156 C 188.792969 160.855469 191.167969 158.484375 194.097656 158.484375 C 197.023438 158.484375 199.398438 160.855469 199.398438 163.785156 C 199.398438 171.679688 192.980469 178.097656 185.089844 178.097656 C 181.660156 178.097656 178.550781 176.835938 176.082031 174.816406 C 173.617188 176.835938 170.507812 178.097656 167.078125 178.097656 C 159.183594 178.097656 152.761719 171.679688 152.761719 163.785156 C 152.761719 160.855469 155.140625 158.484375 158.066406 158.484375 C 160.996094 158.484375 163.375 160.855469 163.375 163.785156 C 163.375 165.828125 165.03125 167.488281 167.078125 167.488281 C 168.914062 167.488281 170.375 166.125 170.660156 164.367188 L 166.328125 160.027344 C 164.808594 158.511719 164.355469 156.226562 165.175781 154.246094 C 166 152.265625 167.933594 150.972656 170.078125 150.972656 Z M 186.417969 134.734375 L 195.421875 131.738281 C 198.195312 130.796875 201.210938 132.308594 202.128906 135.089844 C 203.054688 137.867188 201.554688 140.875 198.773438 141.796875 L 189.765625 144.796875 C 189.210938 144.980469 188.644531 145.070312 188.089844 145.070312 C 185.871094 145.070312 183.796875 143.664062 183.058594 141.441406 C 182.132812 138.664062 183.636719 135.660156 186.417969 134.734375 Z M 140.453125 144.460938 C 139.917969 146.761719 139.644531 149.082031 139.644531 151.359375 C 139.644531 169.71875 156.070312 184.652344 176.261719 184.652344 C 196.441406 184.652344 212.871094 169.71875 212.871094 151.359375 C 212.871094 149.886719 212.730469 148.332031 212.425781 146.476562 C 212.285156 145.632812 212.355469 144.765625 212.625 143.953125 C 215.71875 134.625 218.242188 115.332031 219.46875 104.671875 C 219.46875 104.671875 219.328125 104.558594 219.320312 104.558594 C 213.59375 107.015625 206.09375 110.441406 198.976562 114.269531 C 201.917969 116.214844 204.621094 118.511719 206.921875 121.191406 C 208.832031 123.410156 208.582031 126.761719 206.363281 128.667969 C 204.140625 130.585938 200.796875 130.328125 198.882812 128.109375 C 193.714844 122.101562 185.96875 118.46875 177.625 118.132812 C 177.597656 118.132812 177.566406 118.128906 177.53125 118.125 C 176.484375 118.09375 175.441406 118.128906 174.40625 118.195312 C 174.214844 118.207031 174.03125 118.214844 173.839844 118.226562 C 165.746094 118.898438 158.367188 122.628906 153.542969 128.679688 C 152.496094 129.992188 150.949219 130.679688 149.390625 130.679688 C 148.234375 130.679688 147.066406 130.300781 146.089844 129.523438 C 143.800781 127.691406 143.421875 124.359375 145.246094 122.066406 C 147.773438 118.898438 150.835938 116.230469 154.222656 114.023438 C 147.246094 110.300781 139.941406 106.964844 134.34375 104.558594 C 135.296875 114.257812 137.566406 131.808594 140.390625 141.824219 C 140.632812 142.683594 140.652344 143.589844 140.453125 144.460938 " fill-opacity="1" fill-rule="nonzero"/><path fill="#16659d" d="M 152.648438 42.429688 L 199.324219 42.429688 C 202.25 42.429688 204.628906 40.054688 204.628906 37.125 C 204.628906 34.199219 202.25 31.824219 199.324219 31.824219 L 152.648438 31.824219 C 149.722656 31.824219 147.347656 34.199219 147.347656 37.125 C 147.347656 40.054688 149.722656 42.429688 152.648438 42.429688 " fill-opacity="1" fill-rule="nonzero"/><path fill="#16659d" d="M 296.085938 51.976562 L 296.085938 272.621094 L 312.828125 272.621094 L 312.828125 45.964844 C 312.828125 38.167969 306.484375 31.824219 298.683594 31.824219 L 247.058594 31.824219 L 247.058594 46.671875 L 290.78125 46.671875 C 293.714844 46.671875 296.085938 49.050781 296.085938 51.976562 " fill-opacity="1" fill-rule="nonzero"/><path fill="#9cdfea" d="M 152.648438 21.214844 L 199.324219 21.214844 C 208.097656 21.214844 215.238281 28.355469 215.238281 37.125 C 215.238281 45.898438 208.097656 53.039062 199.324219 53.039062 L 152.648438 53.039062 C 143.875 53.039062 136.738281 45.898438 136.738281 37.125 C 136.738281 28.355469 143.875 21.214844 152.648438 21.214844 Z M 124.011719 65.765625 L 227.964844 65.765625 C 232.644531 65.765625 236.453125 61.960938 236.453125 57.285156 L 236.453125 10.605469 L 115.523438 10.605469 L 115.523438 57.285156 C 115.523438 61.960938 119.328125 65.765625 124.011719 65.765625 " fill-opacity="1" fill-rule="nonzero"/><g clip-path="url(#15a16e8c3e)"><path fill="#040606" d="M 344.882812 302.554688 C 344.882812 315.875 334.042969 326.714844 320.714844 326.714844 L 116.105469 326.714844 C 122.167969 320.457031 125.898438 311.933594 125.898438 302.554688 L 125.898438 283.226562 L 344.882812 283.226562 Z M 312.828125 359.25 C 312.828125 367.050781 306.484375 373.394531 298.683594 373.394531 L 53.292969 373.394531 C 45.492188 373.394531 39.144531 367.050781 39.144531 359.25 L 39.144531 45.964844 C 39.144531 38.167969 45.492188 31.824219 53.292969 31.824219 L 104.917969 31.824219 L 104.917969 46.671875 L 61.191406 46.671875 C 58.261719 46.671875 55.886719 49.050781 55.886719 51.976562 L 55.886719 302.554688 C 55.886719 321.722656 71.488281 337.328125 90.660156 337.328125 L 312.828125 337.328125 Z M 124.011719 76.375 L 227.964844 76.375 C 238.492188 76.375 247.058594 67.808594 247.058594 57.285156 L 285.480469 57.285156 L 285.480469 272.621094 L 120.597656 272.621094 C 117.667969 272.621094 115.289062 274.992188 115.289062 277.921875 L 115.289062 302.554688 C 115.289062 315.875 104.449219 326.714844 91.125 326.714844 L 90.660156 326.714844 C 77.335938 326.714844 66.496094 315.875 66.496094 302.554688 L 66.496094 57.285156 L 104.917969 57.285156 C 104.917969 67.808594 113.480469 76.375 124.011719 76.375 Z M 115.523438 10.605469 L 236.453125 10.605469 L 236.453125 57.285156 C 236.453125 61.960938 232.644531 65.765625 227.964844 65.765625 L 124.011719 65.765625 C 119.328125 65.765625 115.523438 61.960938 115.523438 57.285156 Z M 247.058594 31.824219 L 298.683594 31.824219 C 306.484375 31.824219 312.828125 38.167969 312.828125 45.964844 L 312.828125 272.621094 L 296.085938 272.621094 L 296.085938 51.976562 C 296.085938 49.050781 293.714844 46.671875 290.78125 46.671875 L 247.058594 46.671875 Z M 350.1875 272.621094 L 323.433594 272.621094 L 323.433594 45.964844 C 323.433594 32.316406 312.332031 21.214844 298.683594 21.214844 L 247.058594 21.214844 L 247.058594 5.304688 C 247.058594 2.375 244.6875 0 241.753906 0 L 110.21875 0 C 107.289062 0 104.917969 2.375 104.917969 5.304688 L 104.917969 21.214844 L 53.292969 21.214844 C 39.644531 21.214844 28.539062 32.316406 28.539062 45.964844 L 28.539062 359.25 C 28.539062 372.898438 39.644531 384 53.292969 384 L 298.683594 384 C 312.332031 384 323.433594 372.898438 323.433594 359.25 L 323.433594 337.191406 C 341.339844 335.792969 355.488281 320.808594 355.488281 302.554688 L 355.488281 277.921875 C 355.488281 274.992188 353.117188 272.621094 350.1875 272.621094 " fill-opacity="1" fill-rule="nonzero"/></g><path fill="#040606" d="M 152.648438 31.824219 L 199.324219 31.824219 C 202.25 31.824219 204.628906 34.199219 204.628906 37.125 C 204.628906 40.054688 202.25 42.429688 199.324219 42.429688 L 152.648438 42.429688 C 149.722656 42.429688 147.347656 40.054688 147.347656 37.125 C 147.347656 34.199219 149.722656 31.824219 152.648438 31.824219 Z M 152.648438 53.039062 L 199.324219 53.039062 C 208.097656 53.039062 215.238281 45.898438 215.238281 37.125 C 215.238281 28.355469 208.097656 21.214844 199.324219 21.214844 L 152.648438 21.214844 C 143.875 21.214844 136.738281 28.355469 136.738281 37.125 C 136.738281 45.898438 143.875 53.039062 152.648438 53.039062 " fill-opacity="1" fill-rule="nonzero"/><path fill="#040606" d="M 90.0625 189.878906 C 90.0625 192.808594 92.441406 195.183594 95.371094 195.183594 L 129.3125 195.183594 C 132.242188 195.183594 134.617188 192.808594 134.617188 189.878906 C 134.617188 186.949219 132.242188 184.574219 129.3125 184.574219 L 95.371094 184.574219 C 92.441406 184.574219 90.0625 186.949219 90.0625 189.878906 " fill-opacity="1" fill-rule="nonzero"/><path fill="#040606" d="M 217.355469 189.878906 C 217.355469 192.808594 219.734375 195.183594 222.660156 195.183594 L 252.363281 195.183594 C 255.292969 195.183594 257.667969 192.808594 257.667969 189.878906 C 257.667969 186.949219 255.292969 184.574219 252.363281 184.574219 L 222.660156 184.574219 C 219.734375 184.574219 217.355469 186.949219 217.355469 189.878906 " fill-opacity="1" fill-rule="nonzero"/><path fill="#040606" d="M 252.363281 214.277344 L 129.3125 214.277344 C 126.382812 214.277344 124.011719 216.648438 124.011719 219.578125 C 124.011719 222.511719 126.382812 224.882812 129.3125 224.882812 L 252.363281 224.882812 C 255.292969 224.882812 257.667969 222.511719 257.667969 219.578125 C 257.667969 216.648438 255.292969 214.277344 252.363281 214.277344 " fill-opacity="1" fill-rule="nonzero"/><path fill="#040606" d="M 95.371094 224.882812 L 103.851562 224.882812 C 106.78125 224.882812 109.160156 222.511719 109.160156 219.578125 C 109.160156 216.648438 106.78125 214.277344 103.851562 214.277344 L 95.371094 214.277344 C 92.441406 214.277344 90.0625 216.648438 90.0625 219.578125 C 90.0625 222.511719 92.441406 224.882812 95.371094 224.882812 " fill-opacity="1" fill-rule="nonzero"/><path fill="#040606" d="M 201.445312 243.976562 L 95.371094 243.976562 C 92.441406 243.976562 90.0625 246.351562 90.0625 249.285156 C 90.0625 252.210938 92.441406 254.585938 95.371094 254.585938 L 201.445312 254.585938 C 204.375 254.585938 206.75 252.210938 206.75 249.285156 C 206.75 246.351562 204.375 243.976562 201.445312 243.976562 " fill-opacity="1" fill-rule="nonzero"/><path fill="#040606" d="M 252.363281 243.976562 L 231.144531 243.976562 C 228.214844 243.976562 225.84375 246.351562 225.84375 249.285156 C 225.84375 252.210938 228.214844 254.585938 231.144531 254.585938 L 252.363281 254.585938 C 255.292969 254.585938 257.667969 252.210938 257.667969 249.285156 C 257.667969 246.351562 255.292969 243.976562 252.363281 243.976562 " fill-opacity="1" fill-rule="nonzero"/><path fill="#040606" d="M 154.222656 114.023438 C 150.835938 116.230469 147.773438 118.898438 145.246094 122.066406 C 143.421875 124.359375 143.800781 127.691406 146.089844 129.523438 C 147.066406 130.300781 148.234375 130.679688 149.390625 130.679688 C 150.949219 130.679688 152.496094 129.992188 153.542969 128.679688 C 158.367188 122.628906 165.746094 118.898438 173.839844 118.226562 C 174.03125 118.214844 174.214844 118.207031 174.40625 118.195312 C 175.441406 118.128906 176.484375 118.09375 177.53125 118.125 C 177.566406 118.128906 177.597656 118.132812 177.625 118.132812 C 185.96875 118.46875 193.714844 122.101562 198.882812 128.109375 C 200.796875 130.328125 204.140625 130.585938 206.363281 128.667969 C 208.582031 126.761719 208.832031 123.410156 206.921875 121.191406 C 204.621094 118.511719 201.917969 116.214844 198.976562 114.269531 C 206.09375 110.441406 213.59375 107.015625 219.320312 104.558594 C 219.328125 104.558594 219.46875 104.671875 219.46875 104.671875 C 218.242188 115.332031 215.71875 134.625 212.625 143.953125 C 212.355469 144.765625 212.285156 145.632812 212.425781 146.476562 C 212.730469 148.332031 212.871094 149.886719 212.871094 151.359375 C 212.871094 169.71875 196.441406 184.652344 176.261719 184.652344 C 156.070312 184.652344 139.644531 169.71875 139.644531 151.359375 C 139.644531 149.082031 139.917969 146.761719 140.453125 144.460938 C 140.652344 143.589844 140.632812 142.683594 140.390625 141.824219 C 137.566406 131.808594 135.296875 114.257812 134.34375 104.558594 C 139.941406 106.964844 147.246094 110.300781 154.222656 114.023438 Z M 129.039062 151.359375 C 129.039062 175.566406 150.222656 195.261719 176.261719 195.261719 C 202.292969 195.261719 223.476562 175.566406 223.476562 151.359375 C 223.476562 149.695312 223.351562 147.949219 223.085938 146.058594 C 226.125 136.089844 228.515625 118.851562 230.011719 105.882812 C 230.457031 102.035156 228.863281 98.367188 225.761719 96.054688 C 222.65625 93.75 218.683594 93.285156 215.136719 94.808594 C 207.394531 98.136719 196.515625 103.15625 187.3125 108.683594 C 184.261719 108 181.175781 107.648438 178.074219 107.539062 C 178.03125 107.535156 177.988281 107.53125 177.941406 107.527344 C 177.929688 107.527344 177.914062 107.53125 177.898438 107.53125 C 176.476562 107.484375 175.050781 107.519531 173.617188 107.601562 C 173.421875 107.609375 173.226562 107.609375 173.03125 107.625 C 170.714844 107.777344 168.394531 108.035156 166.074219 108.515625 C 156.949219 103.070312 146.1875 98.105469 138.535156 94.808594 C 134.988281 93.285156 131.011719 93.753906 127.914062 96.058594 C 124.804688 98.367188 123.214844 102.046875 123.65625 105.898438 C 124.988281 117.476562 127.125 133.15625 129.828125 143.414062 C 129.304688 146.058594 129.039062 148.722656 129.039062 151.359375 " fill-opacity="1" fill-rule="nonzero"/><path fill="#040606" d="M 165.175781 154.246094 C 164.355469 156.226562 164.808594 158.511719 166.328125 160.027344 L 170.660156 164.367188 C 170.375 166.125 168.914062 167.488281 167.078125 167.488281 C 165.03125 167.488281 163.375 165.828125 163.375 163.785156 C 163.375 160.855469 160.996094 158.484375 158.066406 158.484375 C 155.140625 158.484375 152.761719 160.855469 152.761719 163.785156 C 152.761719 171.679688 159.183594 178.097656 167.078125 178.097656 C 170.507812 178.097656 173.617188 176.835938 176.082031 174.816406 C 178.550781 176.835938 181.660156 178.097656 185.089844 178.097656 C 192.980469 178.097656 199.398438 171.679688 199.398438 163.785156 C 199.398438 160.855469 197.023438 158.484375 194.097656 158.484375 C 191.167969 158.484375 188.792969 160.855469 188.792969 163.785156 C 188.792969 165.828125 187.128906 167.488281 185.089844 167.488281 C 183.253906 167.488281 181.792969 166.125 181.503906 164.363281 L 185.835938 160.027344 C 187.351562 158.511719 187.808594 156.226562 186.984375 154.246094 C 186.164062 152.265625 184.234375 150.972656 182.085938 150.972656 L 170.078125 150.972656 C 167.933594 150.972656 166 152.265625 165.175781 154.246094 " fill-opacity="1" fill-rule="nonzero"/><path fill="#040606" d="M 153.390625 141.796875 L 162.394531 144.796875 C 162.949219 144.980469 163.515625 145.070312 164.074219 145.070312 C 166.292969 145.070312 168.363281 143.664062 169.101562 141.441406 C 170.03125 138.664062 168.527344 135.660156 165.746094 134.734375 L 156.742188 131.738281 C 153.964844 130.796875 150.964844 132.308594 150.03125 135.085938 C 149.105469 137.867188 150.613281 140.875 153.390625 141.796875 " fill-opacity="1" fill-rule="nonzero"/><path fill="#040606" d="M 188.089844 145.070312 C 188.644531 145.070312 189.210938 144.980469 189.765625 144.796875 L 198.773438 141.796875 C 201.554688 140.875 203.054688 137.867188 202.128906 135.089844 C 201.210938 132.308594 198.195312 130.796875 195.421875 131.738281 L 186.417969 134.734375 C 183.636719 135.660156 182.132812 138.664062 183.058594 141.441406 C 183.796875 143.664062 185.871094 145.070312 188.089844 145.070312 " fill-opacity="1" fill-rule="nonzero"/></svg>