<svg width="393" height="499" viewBox="0 0 393 499" fill="none" xmlns="http://www.w3.org/2000/svg">
<path d="M351.719 145.713L320.89 122.88H67.5728L40.0103 148.635L8.83838 460.974L34.5988 486.385H364.083L385.89 458.052L351.719 145.713ZM227.719 250.542C237.167 250.542 244.896 263.422 244.896 279.307C244.896 295.187 237.25 308.068 227.719 308.068C218.276 308.068 210.547 295.187 210.547 279.307C210.547 263.422 218.187 250.542 227.719 250.542ZM168.042 251.49C178.088 251.49 186.245 263.682 186.245 278.792C186.245 293.901 178.088 306.094 168.042 306.094C157.995 306.094 149.838 293.901 149.838 278.792C149.838 263.682 157.906 251.49 168.042 251.49ZM118.062 343.094C108.276 343.094 100.292 332.792 100.292 320.172C100.292 307.463 108.276 297.25 118.062 297.25C127.854 297.25 135.838 307.552 135.838 320.172C135.838 332.792 127.854 343.094 118.062 343.094ZM249.276 410.661H139.531L128.713 379.927L178.172 331.505H213.036L264.474 379.411L249.276 410.661ZM276.062 345.068C268.25 345.068 261.896 333.224 261.896 318.625C261.896 304.031 268.25 292.271 276.062 292.271C283.88 292.271 290.234 304.12 290.234 318.625C290.146 333.224 283.88 345.068 276.062 345.068Z" fill="#78B9EB"/>
<path d="M361.334 156.448C360.302 133.781 339.865 116.011 314.88 116.011H302.511C306.203 -37.6666 87.1513 -37.5833 90.844 116.011H78.4794C53.4898 116.011 33.0523 133.781 32.0263 155.932L0.76584 454.365C-0.692494 479.089 22.7502 498.833 47.2242 498.318H345.964C370.693 498.75 393.964 479.172 392.417 453.849L361.334 156.448ZM108.021 106.136C114.63 -17.4947 290.834 -8.47909 285.339 116.011H108.021V106.136ZM368.802 471.875C363.136 477.802 354.808 481.151 345.964 481.151H47.3075C32.6252 481.578 17.4273 470.333 17.9429 455.651L49.1981 157.307C49.7971 143.828 62.6773 133.266 78.5679 133.266H90.9325V184.781C90.9325 189.5 94.7971 193.365 99.5158 193.365C104.24 193.365 108.104 189.5 108.104 184.781V133.266H285.427V184.781C285.427 189.5 289.287 193.365 294.011 193.365C298.735 193.365 302.599 189.5 302.599 184.781V133.266H314.964C330.766 133.266 343.646 143.828 344.334 157.823L375.5 455.136C375.589 461.229 373.271 467.156 368.802 471.875Z" fill="#006DF0"/>
<path d="M227.547 334.078C210.203 317.339 183.068 317.255 165.636 334.078L132.75 365.849C110.938 385.766 126.136 425.599 156.62 424.313C170.62 424.141 181.865 416.844 196.552 417.016C211.578 416.76 223.344 423.37 236.906 424.229C266.792 425.688 282.162 385.677 260.349 365.849C260.438 365.849 227.547 334.078 227.547 334.078ZM252.365 396.839C249.703 403.365 244.037 407.229 237.167 407.141C224.115 404.995 212.693 399.672 196.552 399.844C180.833 399.5 169.5 406.198 156.193 407.229C141.938 407.401 133.349 389.542 144.682 378.208L177.573 346.443C188.219 336.141 204.88 336.141 215.526 346.443L248.417 378.208C254.599 384.047 254.511 391.688 252.365 396.839Z" fill="#006DF0"/>
<path d="M281.734 286C247.984 280.078 236.651 347.474 266.875 353.911C300.625 359.838 311.875 292.443 281.734 286ZM281.562 321.719C279.073 330.734 275.979 336.141 270.568 337.172C262.328 334.338 266.792 303.516 277.87 302.745C280.443 303.344 283.88 311.156 281.562 321.719Z" fill="#006DF0"/>
<path d="M226.005 317.255C263.443 316.568 263.443 241.443 226.005 240.755C188.563 241.443 188.563 316.568 226.005 317.255ZM226.005 257.927C240.688 259.302 240.688 298.708 226.005 300.083C211.406 298.708 211.406 259.302 226.005 257.927Z" fill="#006DF0"/>
<path d="M143.052 314.594C133.781 271.578 86.0363 278.188 94.8801 325.323C104.156 368.339 151.896 361.813 143.052 314.594ZM122.614 337.172C111.536 336.401 107.073 305.578 115.318 302.828C126.479 303.516 130.859 334.422 122.614 337.172Z" fill="#006DF0"/>
<path d="M167.271 317.255C204.708 316.568 204.708 241.443 167.271 240.755C129.745 241.443 129.745 316.568 167.271 317.255ZM167.271 257.927C181.953 259.302 181.953 298.708 167.271 300.083C152.583 298.708 152.583 259.302 167.271 257.927Z" fill="#006DF0"/>
</svg>
