<svg xmlns="http://www.w3.org/2000/svg" xmlns:xlink="http://www.w3.org/1999/xlink" width="512" zoomAndPan="magnify" viewBox="0 0 384 383.999986" height="512" preserveAspectRatio="xMidYMid meet" version="1.0"><defs><clipPath id="9dbe7bfbd8"><path d="M 218 12.40625 L 371.742188 12.40625 L 371.742188 163 L 218 163 Z M 218 12.40625 " clip-rule="nonzero"/></clipPath><clipPath id="b65b9be4b8"><path d="M 275 12.40625 L 354 12.40625 L 354 70 L 275 70 Z M 275 12.40625 " clip-rule="nonzero"/></clipPath><clipPath id="f6751efec9"><path d="M 275 12.40625 L 311 12.40625 L 311 70 L 275 70 Z M 275 12.40625 " clip-rule="nonzero"/></clipPath><clipPath id="5d3ff937a1"><path d="M 285 135 L 342 135 L 342 166.15625 L 285 166.15625 Z M 285 135 " clip-rule="nonzero"/></clipPath><clipPath id="d1c588620c"><path d="M 285 135 L 302 135 L 302 166.15625 L 285 166.15625 Z M 285 135 " clip-rule="nonzero"/></clipPath><clipPath id="4607cc0757"><path d="M 253 146 L 293 146 L 293 166.15625 L 253 166.15625 Z M 253 146 " clip-rule="nonzero"/></clipPath></defs><rect x="-38.4" width="460.8" fill="#ffffff" y="-38.399999" height="460.799983" fill-opacity="1"/><rect x="-38.4" width="460.8" fill="#ffffff" y="-38.399999" height="460.799983" fill-opacity="1"/><path fill="#ccd1d9" d="M 258 348 L 228 348 L 228 288 L 42 288 C 38.699219 288 36 285.300781 36 282 L 36 54 C 36 50.699219 38.699219 48 42 48 L 228.238281 48 L 228.300781 48.058594 C 234.421875 38.339844 242.699219 30.121094 252.421875 24.058594 L 252.421875 24 L 42 24 C 25.441406 24 12 37.441406 12 54 L 12 282 C 12 298.558594 25.441406 312 42 312 L 144 312 L 144 348 L 114 348 C 104.039062 348 96 356.039062 96 366 L 96 372 L 276 372 L 276 366 C 276 356.039062 267.960938 348 258 348 Z M 258 348 " fill-opacity="1" fill-rule="nonzero"/><path fill="#ccd1d9" d="M 360 131.578125 L 360 252.539062 C 359.160156 252.839844 358.320312 253.261719 357.601562 253.800781 L 336 270 L 336 155.761719 L 335.941406 155.699219 C 339 153.839844 341.878906 151.679688 344.578125 149.339844 C 350.578125 144.238281 355.800781 138.300781 359.941406 131.578125 Z M 360 131.578125 " fill-opacity="1" fill-rule="nonzero"/><path fill="#fcd770" d="M 372 261 L 372 315 C 372 319.980469 367.980469 324 363 324 C 361.078125 324 359.160156 323.339844 357.601562 322.199219 L 336 306 L 336 270 L 357.601562 253.800781 C 358.320312 253.261719 359.160156 252.839844 360 252.539062 C 360.960938 252.179688 361.980469 252 363 252 C 367.980469 252 372 256.019531 372 261 Z M 372 261 " fill-opacity="1" fill-rule="nonzero"/><path fill="#fcd770" d="M 336 270 L 336 312 C 336 318.601562 330.601562 324 324 324 L 240 324 C 233.398438 324 228 318.601562 228 312 L 228 264 C 228 257.398438 233.398438 252 240 252 L 324 252 C 330.601562 252 336 257.398438 336 264 Z M 336 270 " fill-opacity="1" fill-rule="nonzero"/><path fill="#4fc1e9" d="M 86.039062 174 C 88.859375 181.859375 94.320312 188.519531 101.398438 192.78125 L 101.398438 192.839844 L 96 210 L 79.199219 211.679688 C 78.960938 211.679688 78.71875 211.738281 78.480469 211.800781 C 54.300781 214.558594 36 235.019531 36 259.441406 L 36 54 C 36 50.699219 38.699219 48 42 48 L 228.238281 48 L 228.300781 48.058594 C 220.5 60.179688 216 74.578125 216 90 C 216 113.761719 226.621094 135.058594 243.421875 149.339844 C 257.039062 160.980469 274.679688 168 294 168 C 309.421875 168 323.820312 163.5 335.941406 155.699219 L 336 155.761719 L 336 264 C 336 257.398438 330.601562 252 324 252 L 240 252 C 233.398438 252 228 257.398438 228 264 L 228 288 L 204 288 L 204 259.441406 C 204 235.019531 185.699219 214.558594 161.519531 211.800781 C 161.28125 211.738281 161.039062 211.679688 160.800781 211.679688 L 144 210 L 138.601562 192.839844 L 138.601562 192.78125 C 141.121094 191.339844 143.398438 189.480469 145.441406 187.441406 C 149.21875 183.660156 152.160156 179.101562 153.960938 174 L 162 174 C 166.980469 174 171.480469 171.960938 174.71875 168.71875 C 177.960938 165.480469 180 160.980469 180 156 C 180 150.839844 177.839844 146.21875 174.359375 142.921875 L 177.601562 133.140625 C 179.21875 128.398438 180 123.480469 180 118.441406 C 180 105.601562 174.78125 94.019531 166.378906 85.621094 C 157.980469 77.21875 146.398438 72 133.558594 72 L 117.660156 72 C 104.101562 72 91.5 78.78125 84 90 L 77.460938 91.621094 C 67.199219 94.199219 60 103.441406 60 114 C 60 120 61.5 127.199219 63 132.78125 C 64.5 138.421875 66 142.558594 66 142.558594 L 66.058594 142.621094 C 62.339844 145.800781 60 150.660156 60 156 C 60 160.980469 62.039062 165.480469 65.28125 168.71875 C 68.519531 171.960938 73.019531 174 78 174 Z M 86.039062 174 " fill-opacity="1" fill-rule="nonzero"/><path fill="#5b6570" d="M 120 228 L 144 210 L 160.800781 211.679688 C 161.039062 211.679688 161.28125 211.738281 161.519531 211.800781 L 150 246 L 135.71875 237.421875 Z M 120 228 " fill-opacity="1" fill-rule="nonzero"/><path fill="#5b6570" d="M 204 259.441406 L 204 288 L 138 288 L 126 252 L 135.71875 237.421875 L 150 246 L 161.519531 211.800781 C 185.699219 214.558594 204 235.019531 204 259.441406 Z M 204 259.441406 " fill-opacity="1" fill-rule="nonzero"/><path fill="#5b6570" d="M 96 210 L 120 228 L 104.28125 237.421875 L 90 246 L 78.480469 211.800781 C 78.71875 211.738281 78.960938 211.679688 79.199219 211.679688 Z M 96 210 " fill-opacity="1" fill-rule="nonzero"/><path fill="#5b6570" d="M 104.28125 237.421875 L 114 252 L 102 288 L 42 288 C 38.699219 288 36 285.300781 36 282 L 36 259.441406 C 36 235.019531 54.300781 214.558594 78.480469 211.800781 L 90 246 Z M 104.28125 237.421875 " fill-opacity="1" fill-rule="nonzero"/><path fill="#fcd770" d="M 132 114 C 132 117.300781 130.679688 120.300781 128.460938 122.460938 C 126.300781 124.679688 123.300781 126 120 126 L 96 126 C 89.398438 126 84 131.398438 84 138 L 78 138 C 73.378906 138 69.238281 139.738281 66.058594 142.621094 L 66 142.558594 C 66 142.558594 64.5 138.421875 63 132.78125 C 61.5 127.199219 60 120 60 114 C 60 103.441406 67.199219 94.199219 77.460938 91.621094 L 84 90 C 91.5 78.78125 104.101562 72 117.660156 72 L 133.558594 72 C 146.398438 72 157.980469 77.21875 166.378906 85.621094 C 174.78125 94.019531 180 105.601562 180 118.441406 C 180 123.480469 179.21875 128.398438 177.601562 133.140625 L 174.359375 142.921875 C 171.179688 139.921875 166.800781 138 162 138 L 156 138 C 155.640625 127.320312 148.261719 118.078125 137.820312 115.441406 Z M 132 114 " fill-opacity="1" fill-rule="nonzero"/><path fill="#ffeaa7" d="M 246 84 L 246 143.519531 C 245.039062 145.378906 244.199219 147.300781 243.421875 149.339844 C 226.621094 135.058594 216 113.761719 216 90 C 216 74.578125 220.5 60.179688 228.300781 48.058594 C 234.421875 38.339844 242.699219 30.121094 252.421875 24.058594 C 264.421875 16.441406 278.699219 12 294 12 C 337.078125 12 372 46.921875 372 90 C 372 105.300781 367.558594 119.578125 359.941406 131.578125 C 355.800781 138.300781 350.578125 144.238281 344.578125 149.339844 C 343.800781 147.300781 342.960938 145.378906 342 143.519531 L 342 84 C 342 70.738281 336.601562 58.738281 327.960938 50.039062 C 319.261719 41.398438 307.261719 36 294 36 C 267.480469 36 246 57.480469 246 84 Z M 246 84 " fill-opacity="1" fill-rule="nonzero"/><path fill="#b27946" d="M 327.960938 50.039062 C 319.261719 41.398438 307.261719 36 294 36 C 267.480469 36 246 57.480469 246 84 L 246 143.519531 C 250.019531 135.539062 255.898438 128.820312 263.039062 123.78125 C 265.859375 121.800781 268.921875 120.058594 272.101562 118.679688 L 294 114 C 287.398438 114 281.398438 111.300781 277.019531 106.980469 C 272.699219 102.601562 270 96.601562 270 90 L 270 79.441406 C 270 74.878906 272.578125 70.738281 276.660156 68.699219 L 294 60 L 311.339844 68.699219 C 315.421875 70.738281 318 74.878906 318 79.441406 L 318 90 C 318 103.261719 307.261719 114 294 114 C 301.738281 114 309.179688 115.679688 315.898438 118.679688 C 327.121094 123.660156 336.421875 132.421875 342 143.519531 L 342 84 C 342 70.738281 336.601562 58.738281 327.960938 50.039062 Z M 327.960938 50.039062 " fill-opacity="1" fill-rule="nonzero"/><path fill="#656d78" d="M 307.320312 138 L 294 168 L 280.679688 138 Z M 307.320312 138 " fill-opacity="1" fill-rule="nonzero"/><path fill="#ff826e" d="M 315.898438 118.679688 C 327.121094 123.660156 336.421875 132.421875 342 143.519531 C 342.960938 145.378906 343.800781 147.300781 344.578125 149.339844 C 341.878906 151.679688 339 153.839844 335.941406 155.699219 C 323.820312 163.5 309.421875 168 294 168 L 307.320312 138 L 315.71875 119.160156 Z M 315.898438 118.679688 " fill-opacity="1" fill-rule="nonzero"/><path fill="#ff826e" d="M 272.28125 119.160156 L 280.679688 138 L 294 168 C 274.679688 168 257.039062 160.980469 243.421875 149.339844 C 244.199219 147.300781 245.039062 145.378906 246 143.519531 C 250.019531 135.539062 255.898438 128.820312 263.039062 123.78125 C 265.859375 121.800781 268.921875 120.058594 272.101562 118.679688 Z M 272.28125 119.160156 " fill-opacity="1" fill-rule="nonzero"/><path fill="#ff826e" d="M 126 252 L 138 288 L 102 288 L 114 252 Z M 126 252 " fill-opacity="1" fill-rule="nonzero"/><path fill="#ff826e" d="M 104.28125 237.421875 L 120 228 L 135.71875 237.421875 L 126 252 L 114 252 Z M 104.28125 237.421875 " fill-opacity="1" fill-rule="nonzero"/><path fill="#f0d0b4" d="M 272.101562 118.679688 L 294 114 C 301.738281 114 309.179688 115.679688 315.898438 118.679688 L 315.71875 119.160156 L 307.320312 138 L 280.679688 138 L 272.28125 119.160156 Z M 272.101562 118.679688 " fill-opacity="1" fill-rule="nonzero"/><path fill="#f0d0b4" d="M 318 79.441406 L 318 90 C 318 103.261719 307.261719 114 294 114 C 287.398438 114 281.398438 111.300781 277.019531 106.980469 C 272.699219 102.601562 270 96.601562 270 90 L 270 79.441406 C 270 74.878906 272.578125 70.738281 276.660156 68.699219 L 294 60 L 311.339844 68.699219 C 315.421875 70.738281 318 74.878906 318 79.441406 Z M 318 79.441406 " fill-opacity="1" fill-rule="nonzero"/><path fill="#f0d0b4" d="M 174.359375 142.921875 C 171.179688 139.921875 166.800781 138 162 138 L 156 138 C 155.640625 127.320312 148.261719 118.078125 137.820312 115.441406 L 132 114 C 132 117.300781 130.679688 120.300781 128.460938 122.460938 C 126.300781 124.679688 123.300781 126 120 126 L 96 126 C 89.398438 126 84 131.398438 84 138 L 78 138 C 73.378906 138 69.238281 139.738281 66.058594 142.621094 C 62.339844 145.800781 60 150.660156 60 156 C 60 160.980469 62.039062 165.480469 65.28125 168.71875 C 68.519531 171.960938 73.019531 174 78 174 L 86.039062 174 C 88.859375 181.859375 94.320312 188.519531 101.398438 192.78125 L 101.398438 192.839844 L 96 210 L 120 228 L 144 210 L 138.601562 192.839844 L 138.601562 192.78125 C 141.121094 191.339844 143.398438 189.480469 145.441406 187.441406 C 149.21875 183.660156 152.160156 179.101562 153.960938 174 L 162 174 C 166.980469 174 171.480469 171.960938 174.71875 168.71875 C 177.960938 165.480469 180 160.980469 180 156 C 180 150.839844 177.839844 146.21875 174.359375 142.921875 Z M 174.359375 142.921875 " fill-opacity="1" fill-rule="nonzero"/><path fill="#000000" d="M 366 246.304688 L 366 133.042969 C 373.566406 120.4375 378 105.742188 378 90 C 378 43.679688 340.320312 6 294 6 C 278.257812 6 263.5625 10.433594 250.957031 18 L 42 18 C 22.144531 18 6 34.144531 6 54 L 6 282 C 6 301.855469 22.144531 318 42 318 L 138 318 L 138 342 L 114 342 C 100.765625 342 90 352.765625 90 366 L 90 378 L 282 378 L 282 366 C 282 352.765625 271.234375 342 258 342 L 234 342 L 234 328.894531 C 235.882812 329.566406 237.886719 330 240 330 L 324 330 C 332.058594 330 338.8125 324.640625 341.105469 317.328125 L 354.007812 327.007812 C 356.585938 328.9375 359.777344 330 363 330 C 371.269531 330 378 323.273438 378 315 L 378 261 C 378 253.753906 372.839844 247.699219 366 246.304688 Z M 354 249 L 342 258 L 342 158.839844 C 346.3125 155.820312 350.332031 152.429688 354 148.679688 Z M 336 125.316406 C 329.921875 119.328125 322.613281 114.683594 314.578125 111.71875 C 320.351562 106.246094 324 98.5625 324 90 L 324 79.414062 C 324 72.558594 320.191406 66.390625 314.050781 63.316406 L 300 56.292969 L 300 42.480469 C 320.320312 45.40625 336 62.886719 336 84 Z M 303.4375 132 L 284.566406 132 L 280.171875 122.105469 C 284.585938 120.761719 289.230469 120 294 120 C 298.769531 120 303.414062 120.761719 307.828125 122.105469 Z M 298.105469 144 L 294 153.226562 L 289.894531 144 Z M 276 90 L 276 79.414062 C 276 77.128906 277.273438 75.070312 279.316406 74.050781 L 294 66.707031 L 308.683594 74.050781 C 310.726562 75.070312 312 77.128906 312 79.414062 L 312 90 C 312 99.925781 303.925781 108 294 108 C 284.074219 108 276 99.925781 276 90 Z M 288 56.292969 L 273.949219 63.316406 C 267.808594 66.382812 264 72.558594 264 79.414062 L 264 90 C 264 98.5625 267.648438 106.246094 273.421875 111.71875 C 265.378906 114.683594 258.070312 119.320312 252 125.316406 L 252 84 C 252 62.886719 267.679688 45.40625 288 42.480469 Z M 269.257812 127.09375 L 284.453125 161.292969 C 271.960938 159.625 260.496094 154.753906 250.871094 147.515625 C 254.921875 138.917969 261.355469 131.898438 269.257812 127.09375 Z M 318.742188 127.09375 C 326.640625 131.898438 333.078125 138.925781 337.121094 147.515625 C 327.496094 154.753906 316.03125 159.625 303.539062 161.292969 Z M 366 90 C 366 108.191406 359.164062 124.777344 348 137.464844 L 348 84 C 348 54.226562 323.773438 30 294 30 C 264.226562 30 240 54.226562 240 84 L 240 137.464844 C 228.835938 124.777344 222 108.191406 222 90 C 222 50.296875 254.296875 18 294 18 C 333.703125 18 366 50.296875 366 90 Z M 18 282 L 18 54 C 18 40.765625 28.765625 30 42 30 L 235.324219 30 C 231.574219 33.664062 228.179688 37.6875 225.167969 42 L 42 42 C 35.382812 42 30 47.382812 30 54 L 30 282 C 30 288.617188 35.382812 294 42 294 L 222 294 L 222 306 L 42 306 C 28.765625 306 18 295.234375 18 282 Z M 78 144 L 78 162 C 78 164.039062 78.199219 166.03125 78.480469 168 L 78 168 C 71.382812 168 66 162.617188 66 156 C 66 149.382812 71.382812 144 78 144 Z M 79.105469 132 L 78 132 C 74.980469 132 72.125 132.625 69.460938 133.644531 C 67.871094 128.125 66 120.292969 66 114 C 66 106.15625 71.308594 99.359375 78.917969 97.457031 L 87.703125 95.261719 L 88.984375 93.328125 C 95.382812 83.730469 106.09375 78 117.625 78 L 133.53125 78 C 155.851562 78 174 96.148438 174 118.464844 C 174 122.820312 173.296875 127.121094 171.925781 131.257812 L 171.070312 133.8125 C 168.269531 132.660156 165.210938 132 162 132 L 161.140625 132 C 158.652344 121.195312 150.402344 112.414062 139.277344 109.632812 L 137.335938 109.144531 C 135.214844 101.574219 128.242188 96 120 96 L 114 96 L 114 108 L 120 108 C 123.304688 108 126 110.695312 126 114 C 126 117.304688 123.304688 120 120 120 L 96 120 C 88.1875 120 81.589844 125.035156 79.105469 132 Z M 162 162 L 162 144 C 168.617188 144 174 149.382812 174 156 C 174 162.617188 168.617188 168 162 168 L 161.519531 168 C 161.800781 166.03125 162 164.039062 162 162 Z M 90 138 C 90 134.695312 92.695312 132 96 132 L 120 132 C 127.324219 132 133.644531 127.597656 136.453125 121.296875 C 144.433594 123.335938 150 130.492188 150 138.738281 L 150 162 C 150 178.542969 136.542969 192 120 192 C 103.457031 192 90 178.542969 90 162 Z M 198 282 L 142.324219 282 L 132.625 252.886719 L 137.539062 245.519531 L 153.316406 254.988281 L 165.539062 218.578125 C 184.367188 222.925781 198 239.617188 198 259.441406 Z M 119.628906 235.21875 L 120 235.5 L 120.371094 235.21875 L 127.230469 239.332031 L 122.789062 246 L 117.210938 246 L 112.769531 239.332031 Z M 118.324219 258 L 121.675781 258 L 129.671875 282 L 110.320312 282 Z M 146.6875 237.019531 L 130.738281 227.449219 L 145.726562 216.203125 L 153.421875 216.972656 Z M 120 204 C 125.269531 204 130.296875 202.980469 134.945312 201.203125 L 137.003906 207.75 L 120 220.5 L 102.996094 207.75 L 105.054688 201.203125 C 109.703125 202.980469 114.730469 204 120 204 Z M 94.273438 216.203125 L 109.261719 227.449219 L 93.3125 237.019531 L 86.578125 216.972656 Z M 74.460938 218.574219 L 86.683594 254.980469 L 102.460938 245.515625 L 107.375 252.882812 L 97.675781 282 L 42 282 L 42 259.441406 C 42 239.617188 55.632812 222.925781 74.460938 218.574219 Z M 270 366 L 102 366 C 102 359.382812 107.382812 354 114 354 L 258 354 C 264.617188 354 270 359.382812 270 366 Z M 150 342 L 150 318 L 222 318 L 222 342 Z M 330 312 C 330 315.3125 327.304688 318 324 318 L 240 318 C 236.695312 318 234 315.3125 234 312 L 234 264 C 234 260.6875 236.695312 258 240 258 L 324 258 C 327.304688 258 330 260.6875 330 264 Z M 324 246 L 240 246 C 230.074219 246 222 254.074219 222 264 L 222 282 L 210 282 L 210 259.441406 C 210 231.574219 189.097656 208.476562 161.375 205.703125 L 148.542969 204.421875 L 145.644531 195.191406 C 150.835938 191.171875 155.046875 185.980469 157.894531 180 L 162 180 C 175.234375 180 186 169.234375 186 156 C 186 150.59375 184.140625 145.65625 181.109375 141.640625 L 183.304688 135.054688 C 185.09375 129.691406 186 124.109375 186 118.464844 C 186 89.53125 162.46875 66 133.535156 66 L 117.628906 66 C 102.875 66 89.125 72.953125 80.382812 84.71875 L 76.007812 85.8125 C 63.046875 89.050781 54 100.644531 54 114 C 54 123.652344 57.394531 135.523438 59.226562 141.234375 C 56.003906 145.320312 54 150.40625 54 156 C 54 169.234375 64.765625 180 78 180 L 82.109375 180 C 84.964844 185.980469 89.171875 191.179688 94.363281 195.191406 L 91.464844 204.421875 L 78.628906 205.703125 C 63.691406 207.199219 50.777344 214.625 42 225.484375 L 42 54 L 218.21875 54 C 213.007812 64.933594 210 77.105469 210 90 C 210 136.320312 247.679688 174 294 174 C 306.894531 174 319.066406 170.992188 330 165.78125 L 330 247.027344 C 328.121094 246.367188 326.105469 246 324 246 Z M 366 315 C 366 317.308594 363.042969 318.773438 361.199219 317.398438 L 342 303 L 342 273 L 361.195312 258.605469 C 363.054688 257.214844 366 258.695312 366 261 Z M 366 315 " fill-opacity="1" fill-rule="nonzero"/><path fill="#000000" d="M 306 222 L 318 222 L 318 234 L 306 234 Z M 306 222 " fill-opacity="1" fill-rule="nonzero"/><path fill="#000000" d="M 282 222 L 294 222 L 294 234 L 282 234 Z M 282 222 " fill-opacity="1" fill-rule="nonzero"/><path fill="#000000" d="M 258 222 L 270 222 L 270 234 L 258 234 Z M 258 222 " fill-opacity="1" fill-rule="nonzero"/><path fill="#000000" d="M 210 198 L 318 198 L 318 210 L 210 210 Z M 210 198 " fill-opacity="1" fill-rule="nonzero"/><path fill="#000000" d="M 210 174 L 258 174 L 258 186 L 210 186 Z M 210 174 " fill-opacity="1" fill-rule="nonzero"/><g clip-path="url(#9dbe7bfbd8)"><path fill="#7fe8ef" d="M 371.742188 89.292969 C 371.742188 107.664062 365.296875 124.53125 354.542969 137.75 C 353.285156 139.296875 349.851562 136.980469 348.480469 138.425781 C 347.003906 139.976562 347.578125 145.277344 345.980469 146.703125 C 344.847656 147.714844 343.6875 148.6875 342.496094 149.625 C 342.023438 150.007812 331.816406 145.691406 331.332031 146.058594 C 318.476562 155.734375 312.210938 160.546875 294.882812 160.546875 C 292.855469 160.546875 290.84375 161.0625 288.855469 160.90625 C 287.78125 160.824219 286.707031 162.300781 285.640625 162.175781 C 285.386719 162.144531 285.132812 162.113281 284.875 162.078125 C 276.832031 161.035156 276.613281 156.707031 269.550781 153.371094 C 266.6875 152.023438 256.492188 155.964844 253.839844 154.285156 C 232.3125 140.664062 218.023438 116.648438 218.023438 89.292969 C 218.023438 46.847656 252.4375 12.433594 294.882812 12.433594 C 337.332031 12.433594 371.742188 46.847656 371.742188 89.292969 Z M 371.742188 89.292969 " fill-opacity="1" fill-rule="nonzero"/></g><path fill="#ffd2d2" d="M 354.542969 137.75 C 351.933594 140.957031 349.070312 143.953125 345.980469 146.703125 L 338.042969 134.03125 C 338.023438 133.996094 338.003906 133.964844 337.980469 133.925781 C 336.304688 131.125 337.175781 127.492188 339.949219 125.753906 C 342.757812 123.996094 346.464844 124.84375 348.222656 127.660156 Z M 354.542969 137.75 " fill-opacity="1" fill-rule="nonzero"/><path fill="#ffc0c0" d="M 350.59375 142.238281 C 349.121094 143.789062 347.578125 145.277344 345.980469 146.703125 L 338.042969 134.03125 C 338.023438 133.996094 338.003906 133.964844 337.980469 133.925781 L 345.457031 132.980469 Z M 350.59375 142.238281 " fill-opacity="1" fill-rule="nonzero"/><path fill="#0a5966" d="M 355.070312 131.832031 L 341.964844 144.941406 L 342.496094 149.625 C 342.023438 150.007812 341.539062 150.378906 341.054688 150.742188 C 325.628906 153.371094 312.210938 162.628906 294.882812 162.628906 C 292.855469 162.628906 290.84375 162.550781 288.855469 162.394531 C 287.78125 162.3125 286.707031 162.207031 285.640625 162.078125 L 287.054688 144.941406 L 284.191406 142.074219 L 273.949219 131.832031 C 272.871094 130.753906 272.972656 128.976562 274.164062 128.027344 L 288.914062 116.269531 C 290.585938 114.9375 292.664062 114.210938 294.804688 114.210938 L 334.214844 114.210938 C 336.355469 114.210938 338.433594 114.9375 340.105469 116.269531 L 354.859375 128.027344 C 356.050781 128.976562 356.152344 130.753906 355.070312 131.832031 Z M 355.070312 131.832031 " fill-opacity="1" fill-rule="nonzero"/><path fill="#024144" d="M 317.765625 117.136719 L 317.765625 158.800781 C 316.671875 158.851562 315.574219 158.875 314.472656 158.875 C 313.394531 158.875 312.320312 158.851562 311.253906 158.804688 L 311.253906 117.136719 Z M 317.765625 117.136719 " fill-opacity="1" fill-rule="nonzero"/><path fill="#ffc0c0" d="M 314.511719 123.574219 C 309.339844 123.574219 305.148438 119.378906 305.148438 114.210938 L 305.148438 104.84375 L 323.875 104.84375 L 323.875 114.210938 C 323.875 119.378906 319.683594 123.574219 314.511719 123.574219 Z M 314.511719 123.574219 " fill-opacity="1" fill-rule="nonzero"/><path fill="#ffc0c0" d="M 343.167969 85.558594 L 350.890625 85.558594 C 356.675781 85.558594 361.363281 80.871094 361.363281 75.085938 C 361.363281 69.304688 356.675781 64.617188 350.890625 64.617188 L 343.589844 64.617188 Z M 343.167969 85.558594 " fill-opacity="1" fill-rule="nonzero"/><path fill="#f4aeae" d="M 347.257812 80.644531 L 351.355469 80.644531 C 354.425781 80.644531 356.914062 78.15625 356.914062 75.085938 C 356.914062 72.015625 354.425781 69.527344 351.355469 69.527344 L 347.480469 69.527344 Z M 347.257812 80.644531 " fill-opacity="1" fill-rule="nonzero"/><path fill="#ffc0c0" d="M 285.855469 85.558594 L 278.128906 85.558594 C 272.34375 85.558594 267.65625 80.871094 267.65625 75.085938 C 267.65625 69.304688 272.34375 64.617188 278.128906 64.617188 L 285.429688 64.617188 Z M 285.855469 85.558594 " fill-opacity="1" fill-rule="nonzero"/><path fill="#f4aeae" d="M 281.585938 80.644531 L 277.484375 80.644531 C 274.414062 80.644531 271.925781 78.15625 271.925781 75.085938 C 271.925781 72.015625 274.414062 69.527344 277.484375 69.527344 L 281.359375 69.527344 Z M 281.585938 80.644531 " fill-opacity="1" fill-rule="nonzero"/><g clip-path="url(#b65b9be4b8)"><path fill="#28858e" d="M 353.367188 37.679688 L 349.402344 69.671875 L 279.601562 69.671875 L 275.640625 37.679688 C 273.976562 24.257812 284.449219 12.40625 297.976562 12.40625 L 331.03125 12.40625 C 344.558594 12.40625 355.03125 24.257812 353.367188 37.679688 Z M 353.367188 37.679688 " fill-opacity="1" fill-rule="nonzero"/></g><g clip-path="url(#f6751efec9)"><path fill="#217b7f" d="M 294.390625 28.261719 L 294.390625 35.636719 L 298.933594 69.671875 L 279.601562 69.671875 L 275.640625 37.679688 C 273.976562 24.257812 284.449219 12.40625 297.976562 12.40625 L 310.246094 12.40625 C 301.488281 12.40625 294.390625 19.503906 294.390625 28.261719 Z M 294.390625 28.261719 " fill-opacity="1" fill-rule="nonzero"/></g><path fill="#ffd2d2" d="M 349.402344 69.675781 L 349.402344 76.117188 C 349.402344 92.851562 337.621094 106.839844 321.898438 110.230469 C 319.515625 110.746094 317.039062 109.515625 314.503906 109.515625 C 295.230469 109.515625 281.101562 95.390625 281.101562 76.117188 L 279.601562 69.675781 C 284.300781 68.742188 287.921875 64.988281 288.6875 60.261719 L 292.078125 39.222656 C 292.511719 36.546875 294.824219 34.746094 297.339844 34.746094 C 298.023438 34.746094 298.726562 34.878906 299.410156 35.167969 C 304.234375 37.210938 309.371094 38.230469 314.503906 38.230469 C 319.640625 38.230469 324.777344 37.210938 329.601562 35.167969 C 332.78125 33.824219 336.378906 35.816406 336.929688 39.222656 L 340.320312 60.261719 C 341.082031 64.988281 344.707031 68.742188 349.402344 69.675781 Z M 349.402344 69.675781 " fill-opacity="1" fill-rule="nonzero"/><path fill="#ffc0c0" d="M 321.898438 110.234375 C 319.515625 110.75 317.039062 111.019531 314.503906 111.019531 C 295.226562 111.019531 279.601562 95.390625 279.601562 76.117188 L 279.601562 69.675781 C 284.300781 68.742188 287.921875 64.992188 288.6875 60.261719 L 292.074219 39.222656 C 292.324219 37.675781 293.203125 36.421875 294.390625 35.636719 L 294.390625 76.117188 C 294.390625 92.855469 306.175781 106.84375 321.898438 110.234375 Z M 321.898438 110.234375 " fill-opacity="1" fill-rule="nonzero"/><path fill="#f1f2f0" d="M 309.578125 60.472656 L 309.578125 69.097656 C 309.578125 73.859375 305.710938 77.726562 300.949219 77.726562 C 296.179688 77.726562 292.316406 73.859375 292.316406 69.097656 L 292.316406 60.472656 C 292.316406 55.710938 296.179688 51.84375 300.949219 51.84375 C 303.332031 51.84375 305.484375 52.808594 307.050781 54.371094 C 308.609375 55.933594 309.578125 58.09375 309.578125 60.472656 Z M 309.578125 60.472656 " fill-opacity="1" fill-rule="nonzero"/><path fill="#dde7e8" d="M 303.148438 77.441406 C 302.445312 77.628906 301.707031 77.722656 300.945312 77.722656 C 296.179688 77.722656 292.316406 73.859375 292.316406 69.09375 L 292.316406 60.472656 C 292.316406 55.710938 296.179688 51.84375 300.945312 51.84375 C 301.703125 51.84375 302.441406 51.941406 303.148438 52.125 C 299.441406 53.101562 296.714844 56.472656 296.714844 60.472656 L 296.714844 69.09375 C 296.714844 73.097656 299.441406 76.46875 303.148438 77.441406 Z M 303.148438 77.441406 " fill-opacity="1" fill-rule="nonzero"/><path fill="#0a5966" d="M 302.957031 73.445312 C 300.449219 73.445312 298.414062 71.410156 298.414062 68.902344 L 298.414062 64.363281 C 298.414062 61.855469 300.449219 59.820312 302.957031 59.820312 C 305.464844 59.820312 307.5 61.855469 307.5 64.363281 L 307.5 68.902344 C 307.5 71.410156 305.464844 73.445312 302.957031 73.445312 Z M 302.957031 73.445312 " fill-opacity="1" fill-rule="nonzero"/><path fill="#f1f2f0" d="M 335.6875 60.472656 L 335.6875 69.097656 C 335.6875 73.859375 331.824219 77.726562 327.054688 77.726562 C 322.292969 77.726562 318.429688 73.859375 318.429688 69.097656 L 318.429688 60.472656 C 318.429688 58.09375 319.394531 55.933594 320.957031 54.371094 C 322.519531 52.808594 324.671875 51.84375 327.054688 51.84375 C 331.824219 51.84375 335.6875 55.710938 335.6875 60.472656 Z M 335.6875 60.472656 " fill-opacity="1" fill-rule="nonzero"/><path fill="#dde7e8" d="M 329.257812 77.441406 C 328.558594 77.628906 327.820312 77.722656 327.058594 77.722656 C 322.292969 77.722656 318.429688 73.859375 318.429688 69.09375 L 318.429688 60.472656 C 318.429688 55.710938 322.292969 51.84375 327.058594 51.84375 C 327.816406 51.84375 328.554688 51.941406 329.257812 52.125 C 325.554688 53.101562 322.828125 56.472656 322.828125 60.472656 L 322.828125 69.09375 C 322.828125 73.097656 325.554688 76.46875 329.257812 77.441406 Z M 329.257812 77.441406 " fill-opacity="1" fill-rule="nonzero"/><path fill="#0a5966" d="M 325.046875 73.445312 C 327.554688 73.445312 329.589844 71.410156 329.589844 68.902344 L 329.589844 64.363281 C 329.589844 61.855469 327.554688 59.820312 325.046875 59.820312 C 322.539062 59.820312 320.503906 61.855469 320.503906 64.363281 L 320.503906 68.902344 C 320.503906 71.410156 322.539062 73.445312 325.046875 73.445312 Z M 325.046875 73.445312 " fill-opacity="1" fill-rule="nonzero"/><path fill="#ffc0c0" d="M 317.886719 76.921875 L 311.136719 76.921875 C 309.378906 76.921875 307.953125 78.347656 307.953125 80.105469 C 307.953125 81.867188 309.378906 83.292969 311.136719 83.292969 L 317.886719 83.292969 C 319.644531 83.292969 321.070312 81.867188 321.070312 80.105469 C 321.070312 78.347656 319.644531 76.921875 317.886719 76.921875 Z M 317.886719 76.921875 " fill-opacity="1" fill-rule="nonzero"/><path fill="#f1f2f0" d="M 305.25 91.324219 C 304.21875 90.292969 304.21875 88.617188 305.25 87.585938 C 306.28125 86.554688 307.953125 86.554688 308.984375 87.585938 C 312.027344 90.628906 316.976562 90.628906 320.019531 87.585938 C 321.050781 86.554688 322.722656 86.554688 323.757812 87.585938 C 324.789062 88.617188 324.789062 90.292969 323.757812 91.324219 C 318.652344 96.425781 310.351562 96.425781 305.25 91.324219 Z M 305.25 91.324219 " fill-opacity="1" fill-rule="nonzero"/><path fill="#5eacdd" d="M 329.609375 150.761719 L 333.050781 150.761719 C 334.484375 150.761719 335.644531 149.601562 335.644531 148.167969 L 335.644531 113.914062 C 335.644531 112.480469 334.484375 111.320312 333.050781 111.320312 L 329.609375 111.320312 C 328.179688 111.320312 327.015625 112.480469 327.015625 113.914062 L 327.015625 148.167969 C 327.015625 149.601562 328.179688 150.761719 329.609375 150.761719 Z M 329.609375 150.761719 " fill-opacity="1" fill-rule="nonzero"/><g clip-path="url(#5d3ff937a1)"><path fill="#5eacdd" d="M 341.054688 150.742188 C 329.265625 159.617188 314.84375 165.175781 299.164062 166.035156 C 297.746094 166.117188 296.320312 166.15625 294.882812 166.15625 C 293.980469 166.15625 293.082031 166.140625 292.1875 166.109375 C 291.070312 166.070312 289.960938 163.4375 288.855469 163.351562 C 287.519531 163.25 286.957031 162.347656 285.640625 162.175781 L 289.957031 141.191406 C 290.621094 138 293.4375 135.707031 296.703125 135.707031 L 332.316406 135.707031 C 335.578125 135.707031 338.394531 138 339.0625 141.191406 Z M 341.054688 150.742188 " fill-opacity="1" fill-rule="nonzero"/></g><g clip-path="url(#d1c588620c)"><path fill="#4b9fc9" d="M 299.164062 166.035156 C 297.746094 166.117188 296.320312 166.15625 294.882812 166.15625 C 293.980469 166.15625 293.082031 166.140625 292.1875 166.109375 C 291.070312 166.070312 289.960938 163.4375 288.855469 163.351562 C 287.519531 163.25 286.957031 162.347656 285.640625 162.175781 L 289.957031 141.191406 C 290.621094 138 293.4375 135.707031 296.703125 135.707031 L 301.5 135.707031 C 297.496094 142.003906 293.164062 152.964844 299.164062 166.035156 Z M 299.164062 166.035156 " fill-opacity="1" fill-rule="nonzero"/></g><path fill="#024144" d="M 305.148438 114.210938 L 314.511719 123.574219 L 306.050781 129.953125 C 304.640625 131.015625 302.605469 130.347656 302.097656 128.660156 L 297.730469 114.210938 Z M 305.148438 114.210938 " fill-opacity="1" fill-rule="nonzero"/><path fill="#024144" d="M 323.875 114.210938 L 314.511719 123.574219 L 322.972656 129.953125 C 324.382812 131.015625 326.414062 130.347656 326.925781 128.660156 L 329.777344 119.214844 C 330.53125 116.722656 328.664062 114.210938 326.058594 114.210938 Z M 323.875 114.210938 " fill-opacity="1" fill-rule="nonzero"/><path fill="#f1f2f0" d="M 322.453125 157.371094 C 322.453125 152.984375 318.898438 149.429688 314.511719 149.429688 C 310.125 149.429688 306.566406 152.984375 306.566406 157.371094 C 306.566406 161.757812 310.125 160.324219 314.511719 160.324219 C 318.898438 160.324219 322.453125 161.757812 322.453125 157.371094 Z M 322.453125 157.371094 " fill-opacity="1" fill-rule="nonzero"/><path fill="#f1f2f0" d="M 306.441406 150.320312 C 306.441406 150.726562 306.367188 151.113281 306.210938 151.488281 C 306.054688 151.863281 305.835938 152.191406 305.550781 152.480469 C 305.261719 152.765625 304.933594 152.984375 304.558594 153.140625 C 304.183594 153.296875 303.796875 153.371094 303.390625 153.371094 C 302.984375 153.371094 302.597656 153.296875 302.222656 153.140625 C 301.847656 152.984375 301.519531 152.765625 301.234375 152.480469 C 300.945312 152.191406 300.726562 151.863281 300.570312 151.488281 C 300.417969 151.113281 300.339844 150.726562 300.339844 150.320312 C 300.339844 149.917969 300.417969 149.527344 300.570312 149.152344 C 300.726562 148.777344 300.945312 148.449219 301.234375 148.164062 C 301.519531 147.875 301.847656 147.65625 302.222656 147.5 C 302.597656 147.347656 302.984375 147.269531 303.390625 147.269531 C 303.796875 147.269531 304.183594 147.347656 304.558594 147.5 C 304.933594 147.65625 305.261719 147.875 305.550781 148.164062 C 305.835938 148.449219 306.054688 148.777344 306.210938 149.152344 C 306.367188 149.527344 306.441406 149.917969 306.441406 150.320312 Z M 306.441406 150.320312 " fill-opacity="1" fill-rule="nonzero"/><path fill="#f1f2f0" d="M 313.65625 145.199219 C 313.65625 145.605469 313.578125 145.996094 313.421875 146.367188 C 313.269531 146.742188 313.046875 147.074219 312.761719 147.359375 C 312.476562 147.644531 312.144531 147.867188 311.769531 148.019531 C 311.398438 148.175781 311.007812 148.253906 310.601562 148.253906 C 310.199219 148.253906 309.808594 148.175781 309.4375 148.019531 C 309.0625 147.867188 308.730469 147.644531 308.445312 147.359375 C 308.160156 147.074219 307.9375 146.742188 307.785156 146.367188 C 307.628906 145.996094 307.550781 145.605469 307.550781 145.199219 C 307.550781 144.796875 307.628906 144.40625 307.785156 144.03125 C 307.9375 143.660156 308.160156 143.328125 308.445312 143.042969 C 308.730469 142.757812 309.0625 142.535156 309.4375 142.382812 C 309.808594 142.226562 310.199219 142.148438 310.601562 142.148438 C 311.007812 142.148438 311.398438 142.226562 311.769531 142.382812 C 312.144531 142.535156 312.476562 142.757812 312.761719 143.042969 C 313.046875 143.328125 313.269531 143.660156 313.421875 144.03125 C 313.578125 144.40625 313.65625 144.796875 313.65625 145.199219 Z M 313.65625 145.199219 " fill-opacity="1" fill-rule="nonzero"/><path fill="#f1f2f0" d="M 328.683594 150.320312 C 328.683594 150.726562 328.605469 151.113281 328.449219 151.488281 C 328.292969 151.863281 328.074219 152.191406 327.789062 152.480469 C 327.5 152.765625 327.171875 152.984375 326.796875 153.140625 C 326.425781 153.296875 326.035156 153.371094 325.628906 153.371094 C 325.226562 153.371094 324.835938 153.296875 324.460938 153.140625 C 324.089844 152.984375 323.757812 152.765625 323.472656 152.480469 C 323.1875 152.191406 322.964844 151.863281 322.808594 151.488281 C 322.65625 151.113281 322.578125 150.726562 322.578125 150.320312 C 322.578125 149.917969 322.65625 149.527344 322.808594 149.152344 C 322.964844 148.777344 323.1875 148.449219 323.472656 148.164062 C 323.757812 147.875 324.089844 147.65625 324.460938 147.5 C 324.835938 147.347656 325.226562 147.269531 325.628906 147.269531 C 326.035156 147.269531 326.425781 147.347656 326.796875 147.5 C 327.171875 147.65625 327.5 147.875 327.789062 148.164062 C 328.074219 148.449219 328.292969 148.777344 328.449219 149.152344 C 328.605469 149.527344 328.683594 149.917969 328.683594 150.320312 Z M 328.683594 150.320312 " fill-opacity="1" fill-rule="nonzero"/><path fill="#f1f2f0" d="M 321.46875 145.199219 C 321.46875 145.605469 321.390625 145.996094 321.238281 146.367188 C 321.082031 146.742188 320.863281 147.074219 320.574219 147.359375 C 320.289062 147.644531 319.960938 147.867188 319.585938 148.019531 C 319.210938 148.175781 318.824219 148.253906 318.417969 148.253906 C 318.011719 148.253906 317.625 148.175781 317.25 148.019531 C 316.875 147.867188 316.546875 147.644531 316.257812 147.359375 C 315.972656 147.074219 315.753906 146.742188 315.597656 146.367188 C 315.441406 145.996094 315.367188 145.605469 315.367188 145.199219 C 315.367188 144.796875 315.441406 144.40625 315.597656 144.03125 C 315.753906 143.660156 315.972656 143.328125 316.257812 143.042969 C 316.546875 142.757812 316.875 142.535156 317.25 142.382812 C 317.625 142.226562 318.011719 142.148438 318.417969 142.148438 C 318.824219 142.148438 319.210938 142.226562 319.585938 142.382812 C 319.960938 142.535156 320.289062 142.757812 320.574219 143.042969 C 320.863281 143.328125 321.082031 143.660156 321.238281 144.03125 C 321.390625 144.40625 321.46875 144.796875 321.46875 145.199219 Z M 321.46875 145.199219 " fill-opacity="1" fill-rule="nonzero"/><g clip-path="url(#4607cc0757)"><path fill="#b26a39" d="M 292.046875 166.101562 C 279.527344 165.648438 267.777344 162.199219 257.484375 156.457031 C 256.578125 155.953125 255.6875 155.429688 254.808594 154.890625 C 254.753906 154.859375 254.703125 154.828125 254.652344 154.792969 C 254.378906 154.628906 254.109375 154.457031 253.839844 154.285156 C 254.835938 149.476562 255.621094 146.992188 255.621094 146.992188 L 288.445312 146.992188 C 288.445312 146.992188 290.394531 154.332031 292.046875 166.101562 Z M 292.046875 166.101562 " fill-opacity="1" fill-rule="nonzero"/></g><path fill="#af5b3a" d="M 263.496094 146.992188 C 263.496094 146.992188 262.828125 151.050781 262.121094 158.835938 C 259.257812 157.488281 256.492188 155.964844 253.839844 154.285156 C 254.835938 149.476562 255.621094 146.992188 255.621094 146.992188 Z M 263.496094 146.992188 " fill-opacity="1" fill-rule="nonzero"/><path fill="#b26a39" d="M 281.664062 104.636719 C 281.664062 104.636719 284.507812 84.792969 294.992188 77.386719 C 296.746094 76.148438 299.148438 76.378906 300.660156 77.898438 C 306.363281 83.632812 318.265625 100.316406 299.171875 127.035156 Z M 281.664062 104.636719 " fill-opacity="1" fill-rule="nonzero"/><path fill="#b26a39" d="M 262.402344 104.632812 L 249.535156 121.097656 L 244.898438 127.035156 C 225.804688 100.316406 237.707031 83.632812 243.40625 77.898438 C 244.921875 76.378906 247.320312 76.148438 249.074219 77.386719 C 259.5625 84.792969 262.402344 104.632812 262.402344 104.632812 Z M 262.402344 104.632812 " fill-opacity="1" fill-rule="nonzero"/><path fill="#af5b3a" d="M 249.535156 121.097656 L 244.898438 127.035156 C 225.804688 100.316406 237.707031 83.632812 243.40625 77.898438 C 244.921875 76.378906 247.320312 76.148438 249.074219 77.386719 C 249.074219 77.386719 233.167969 93.703125 249.074219 120.3125 C 249.234375 120.578125 249.386719 120.839844 249.535156 121.097656 Z M 249.535156 121.097656 " fill-opacity="1" fill-rule="nonzero"/><path fill="#ffd2d2" d="M 262.039062 107.839844 L 252.214844 120.40625 L 248.675781 124.9375 C 234.101562 104.542969 243.183594 91.808594 247.535156 87.433594 C 248.691406 86.273438 250.527344 86.097656 251.863281 87.042969 C 259.867188 92.695312 262.039062 107.839844 262.039062 107.839844 Z M 262.039062 107.839844 " fill-opacity="1" fill-rule="nonzero"/><path fill="#ffd2d2" d="M 282.03125 107.839844 L 291.851562 120.40625 L 295.390625 124.9375 C 309.964844 104.542969 300.882812 91.808594 296.53125 87.433594 C 295.375 86.273438 293.542969 86.097656 292.203125 87.042969 C 284.199219 92.695312 282.03125 107.839844 282.03125 107.839844 Z M 282.03125 107.839844 " fill-opacity="1" fill-rule="nonzero"/><path fill="#b26a39" d="M 299.570312 142.359375 L 298.980469 142.726562 L 277.347656 149.066406 C 274.089844 151.078125 269.976562 151.078125 266.71875 149.066406 L 263.195312 148.035156 L 245.085938 142.726562 L 244.496094 142.359375 C 240.542969 139.921875 238.757812 135.101562 240.164062 130.679688 L 251.378906 104.746094 C 252.71875 100.546875 253.847656 97.09375 258.257812 97.09375 L 267.054688 97.09375 L 272.03125 100.308594 L 277.007812 97.09375 L 285.8125 97.09375 C 290.21875 97.09375 294.117188 99.949219 295.453125 104.144531 L 303.898438 130.679688 C 305.308594 135.101562 303.523438 139.921875 299.570312 142.359375 Z M 299.570312 142.359375 " fill-opacity="1" fill-rule="nonzero"/><path fill="#0a5966" d="M 264.09375 119.003906 C 264.164062 120.242188 263.789062 121.394531 263.113281 122.3125 C 262.765625 122.78125 262.140625 122.964844 261.59375 122.761719 C 260.785156 122.464844 259.914062 122.300781 259.003906 122.300781 C 258.09375 122.300781 257.222656 122.464844 256.414062 122.761719 C 255.84375 122.972656 255.207031 122.753906 254.855469 122.261719 C 254.253906 121.425781 253.902344 120.398438 253.902344 119.292969 C 253.902344 116.371094 256.359375 114.023438 259.320312 114.199219 C 261.875 114.355469 263.953125 116.445312 264.09375 119.003906 Z M 264.09375 119.003906 " fill-opacity="1" fill-rule="nonzero"/><path fill="#024144" d="M 257.234375 119.292969 C 257.234375 120.433594 257.613281 121.492188 258.25 122.339844 C 257.625 122.402344 257.019531 122.542969 256.449219 122.75 C 255.890625 122.953125 255.25 122.796875 254.894531 122.316406 C 254.222656 121.40625 253.84375 120.257812 253.910156 119.023438 C 254.035156 116.585938 255.921875 114.539062 258.34375 114.234375 C 259.164062 114.128906 259.953125 114.222656 260.667969 114.472656 C 258.671875 115.160156 257.234375 117.058594 257.234375 119.292969 Z M 257.234375 119.292969 " fill-opacity="1" fill-rule="nonzero"/><path fill="#0a5966" d="M 290.15625 119.003906 C 290.222656 120.242188 289.847656 121.394531 289.171875 122.3125 C 288.828125 122.78125 288.199219 122.964844 287.652344 122.761719 C 286.847656 122.464844 285.972656 122.300781 285.0625 122.300781 C 284.152344 122.300781 283.28125 122.464844 282.472656 122.761719 C 281.90625 122.972656 281.269531 122.753906 280.914062 122.261719 C 280.316406 121.425781 279.960938 120.398438 279.960938 119.292969 C 279.960938 116.371094 282.417969 114.023438 285.378906 114.199219 C 287.9375 114.355469 290.011719 116.445312 290.15625 119.003906 Z M 290.15625 119.003906 " fill-opacity="1" fill-rule="nonzero"/><path fill="#024144" d="M 283.296875 119.292969 C 283.296875 120.433594 283.671875 121.492188 284.308594 122.339844 C 283.683594 122.402344 283.082031 122.542969 282.511719 122.75 C 281.949219 122.953125 281.308594 122.796875 280.957031 122.316406 C 280.28125 121.40625 279.90625 120.257812 279.96875 119.023438 C 280.09375 116.585938 281.980469 114.539062 284.402344 114.234375 C 285.226562 114.128906 286.011719 114.222656 286.730469 114.472656 C 284.730469 115.160156 283.296875 117.058594 283.296875 119.292969 Z M 283.296875 119.292969 " fill-opacity="1" fill-rule="nonzero"/><path fill="#af5b3a" d="M 263.195312 148.035156 L 245.085938 142.726562 L 244.496094 142.359375 C 240.542969 139.921875 238.757812 135.101562 240.164062 130.679688 L 248.613281 104.144531 C 249.949219 99.949219 253.847656 97.09375 258.257812 97.09375 L 264.101562 97.09375 C 255.574219 97.773438 241.289062 123.433594 263.195312 148.035156 Z M 263.195312 148.035156 " fill-opacity="1" fill-rule="nonzero"/><path fill="#f1f2f0" d="M 298.980469 142.726562 L 298.679688 142.910156 C 288.433594 149.226562 276.5 151.578125 265 149.972656 C 258.191406 149.019531 251.539062 146.683594 245.46875 142.960938 L 245.085938 142.726562 C 247.648438 142.65625 249.933594 141.792969 251.851562 140.640625 C 253.367188 139.730469 254.679688 138.558594 255.75 137.203125 C 257.230469 135.332031 258.257812 133.109375 258.765625 130.726562 C 259.800781 125.835938 262.773438 123.207031 264.867188 121.921875 C 266.230469 121.085938 267.054688 119.59375 267.054688 117.992188 L 267.054688 97.09375 L 277.007812 97.09375 L 277.007812 117.992188 C 277.007812 119.605469 277.859375 121.09375 279.230469 121.941406 C 281.316406 123.234375 284.269531 125.859375 285.300781 130.726562 C 286.171875 134.839844 288.605469 138.476562 292.214844 140.636719 C 294.136719 141.792969 296.417969 142.660156 298.980469 142.726562 Z M 298.980469 142.726562 " fill-opacity="1" fill-rule="nonzero"/><path fill="#f45b83" d="M 277.707031 135.472656 L 277.707031 135.515625 C 277.707031 138.648438 275.164062 141.1875 272.03125 141.1875 C 268.902344 141.1875 266.363281 138.648438 266.363281 135.515625 L 266.363281 135.472656 C 266.824219 135.585938 267.304688 135.648438 267.800781 135.648438 C 269.453125 135.648438 270.949219 134.976562 272.03125 133.890625 C 273.117188 134.972656 274.613281 135.648438 276.265625 135.648438 C 276.761719 135.648438 277.242188 135.585938 277.707031 135.472656 Z M 277.707031 135.472656 " fill-opacity="1" fill-rule="nonzero"/><path fill="#dde7e8" d="M 265 149.972656 C 258.191406 149.019531 251.539062 146.683594 245.46875 142.960938 L 245.085938 142.726562 C 247.648438 142.65625 249.929688 141.792969 251.851562 140.640625 C 253.367188 139.730469 254.675781 138.558594 255.75 137.203125 C 257.859375 141.421875 260.867188 145.722656 265 149.972656 Z M 265 149.972656 " fill-opacity="1" fill-rule="nonzero"/><path fill="#0a5966" d="M 276.3125 129.539062 L 278.386719 126.886719 C 279.734375 125.167969 278.507812 122.652344 276.324219 122.652344 L 267.738281 122.652344 C 265.554688 122.652344 264.332031 125.167969 265.675781 126.886719 L 267.753906 129.539062 C 269.929688 132.320312 274.136719 132.320312 276.3125 129.539062 Z M 276.3125 129.539062 " fill-opacity="1" fill-rule="nonzero"/><path fill="#044e56" d="M 273.988281 131.257812 C 271.855469 132.082031 269.292969 131.507812 267.753906 129.539062 L 265.679688 126.882812 C 264.332031 125.167969 265.554688 122.652344 267.742188 122.652344 L 271.648438 122.652344 C 269.464844 122.652344 268.238281 125.167969 269.585938 126.882812 L 271.660156 129.539062 C 272.296875 130.351562 273.105469 130.925781 273.988281 131.257812 Z M 273.988281 131.257812 " fill-opacity="1" fill-rule="nonzero"/><path fill="#ffd2d2" d="M 264.425781 151.25 C 264.425781 151.429688 264.410156 151.609375 264.378906 151.789062 C 264.292969 152.308594 264.078125 152.785156 263.78125 153.183594 C 263.082031 154.117188 261.898438 154.636719 260.671875 154.429688 L 256.730469 153.769531 L 258.710938 154.953125 C 260.296875 155.90625 260.769531 158.003906 259.703125 159.550781 C 258.730469 160.960938 256.777344 161.300781 255.304688 160.421875 L 250.632812 157.621094 C 250.390625 157.480469 250.148438 157.351562 249.894531 157.234375 C 248.4375 156.5625 247.175781 155.566406 246.15625 154.359375 C 245.144531 153.152344 244.371094 151.730469 243.898438 150.195312 C 242.898438 146.972656 243.414062 143.457031 245.339844 140.683594 C 245.652344 140.242188 245.917969 139.769531 246.144531 139.269531 L 247.699219 135.820312 C 248.300781 134.484375 249.617188 133.691406 250.996094 133.691406 C 251.492188 133.691406 251.996094 133.796875 252.476562 134.011719 C 253.273438 134.371094 253.875 134.980469 254.234375 135.710938 C 254.695312 136.644531 254.746094 137.765625 254.289062 138.789062 L 252.566406 142.609375 L 258.546875 140.253906 C 260.269531 139.574219 262.21875 140.480469 262.796875 142.269531 C 263.320312 143.902344 262.402344 145.65625 260.804688 146.285156 L 257.890625 147.433594 L 261.738281 148.078125 C 262.714844 148.242188 263.519531 148.835938 263.984375 149.632812 C 264.269531 150.113281 264.425781 150.667969 264.425781 151.25 Z M 264.425781 151.25 " fill-opacity="1" fill-rule="nonzero"/><path fill="#ffc0c0" d="M 259.703125 159.550781 C 258.730469 160.960938 256.777344 161.300781 255.304688 160.421875 L 250.632812 157.621094 C 250.390625 157.480469 250.148438 157.351562 249.894531 157.234375 C 248.4375 156.5625 247.175781 155.566406 246.15625 154.359375 C 245.144531 153.152344 244.371094 151.730469 243.898438 150.195312 C 242.898438 146.972656 243.414062 143.457031 245.339844 140.683594 C 245.652344 140.242188 245.917969 139.769531 246.144531 139.269531 C 246.144531 139.269531 244.847656 150.289062 256.730469 153.769531 L 258.710938 154.953125 C 260.296875 155.90625 260.769531 158.003906 259.703125 159.550781 Z M 259.703125 159.550781 " fill-opacity="1" fill-rule="nonzero"/></svg>